<svg xmlns="http://www.w3.org/2000/svg" width="880" height="330" viewBox="0 0 880 330" role="img" aria-labelledby="title">
<title id="title">rafabits: game dev, python and artificial intelligence</title>
<defs>
  <pattern id="scan" width="4" height="3" patternUnits="userSpaceOnUse">
    <rect y="2" width="4" height="1" fill="#000" opacity=".28"/>
  </pattern>
  <radialGradient id="vig" cx="50%" cy="50%" r="75%">
    <stop offset="62%" stop-color="#000" stop-opacity="0"/>
    <stop offset="100%" stop-color="#000" stop-opacity=".55"/>
  </radialGradient>
  <filter id="glow" x="-5%" y="-20%" width="110%" height="140%">
    <feGaussianBlur stdDeviation="2.2" result="b"/>
    <feMerge><feMergeNode in="b"/><feMergeNode in="SourceGraphic"/></feMerge>
  </filter>
  <clipPath id="frame"><rect width="880" height="330" rx="8"/></clipPath>
</defs>
<style>
  text { font-family: 'JetBrains Mono','Cascadia Mono','SF Mono',Consolas,'DejaVu Sans Mono','Liberation Mono',monospace; font-size: 13px; }
  .blink { animation: blink 1.05s steps(1) infinite; }
  @keyframes blink { 50% { opacity: 0; } }
  @media (prefers-reduced-motion: reduce) { * { animation: none !important; } }
  .glowtxt { filter: drop-shadow(0 0 4px #39c6ff66); }
</style>
<g clip-path="url(#frame)">
<rect width="880" height="330" fill="#030705"/>
<rect y="0" width="880" height="25" fill="#0a1a10"/>
<line x1="0" x2="880" y1="25" y2="25" stroke="#174a2e"/>
<rect y="0" width="78" height="25" fill="#3dff8a"/>
<text x="7.8" y="17" fill="#030705" font-weight="700">rafabits</text>
<text x="93.6" y="17" fill="#effff4" font-weight="400">~/github/RafaBits</text>
<text x="872.2" y="17" fill="#7cb896" font-weight="400" text-anchor="end">tty0</text>
<text x="817.6" y="17" fill="#3dff8a" font-weight="400" text-anchor="end">● online</text>
<g fill="#39c6ff" opacity=".35" transform="translate(-2 1)"><rect x="228.5" y="52" width="8" height="8"/><rect x="237.5" y="52" width="8" height="8"/><rect x="246.5" y="52" width="8" height="8"/><rect x="255.5" y="52" width="8" height="8"/><rect x="228.5" y="61" width="8" height="8"/><rect x="264.5" y="61" width="8" height="8"/><rect x="228.5" y="70" width="8" height="8"/><rect x="264.5" y="70" width="8" height="8"/><rect x="228.5" y="79" width="8" height="8"/><rect x="237.5" y="79" width="8" height="8"/><rect x="246.5" y="79" width="8" height="8"/><rect x="255.5" y="79" width="8" height="8"/><rect x="228.5" y="88" width="8" height="8"/><rect x="246.5" y="88" width="8" height="8"/><rect x="228.5" y="97" width="8" height="8"/><rect x="255.5" y="97" width="8" height="8"/><rect x="228.5" y="106" width="8" height="8"/><rect x="264.5" y="106" width="8" height="8"/><rect x="291.5" y="52" width="8" height="8"/><rect x="300.5" y="52" width="8" height="8"/><rect x="309.5" y="52" width="8" height="8"/><rect x="282.5" y="61" width="8" height="8"/><rect x="318.5" y="61" width="8" height="8"/><rect x="282.5" y="70" width="8" height="8"/><rect x="318.5" y="70" width="8" height="8"/><rect x="282.5" y="79" width="8" height="8"/><rect x="291.5" y="79" width="8" height="8"/><rect x="300.5" y="79" width="8" height="8"/><rect x="309.5" y="79" width="8" height="8"/><rect x="318.5" y="79" width="8" height="8"/><rect x="282.5" y="88" width="8" height="8"/><rect x="318.5" y="88" width="8" height="8"/><rect x="282.5" y="97" width="8" height="8"/><rect x="318.5" y="97" width="8" height="8"/><rect x="282.5" y="106" width="8" height="8"/><rect x="318.5" y="106" width="8" height="8"/><rect x="336.5" y="52" width="8" height="8"/><rect x="345.5" y="52" width="8" height="8"/><rect x="354.5" y="52" width="8" height="8"/><rect x="363.5" y="52" width="8" height="8"/><rect x="372.5" y="52" width="8" height="8"/><rect x="336.5" y="61" width="8" height="8"/><rect x="336.5" y="70" width="8" height="8"/><rect x="336.5" y="79" width="8" height="8"/><rect x="345.5" y="79" width="8" height="8"/><rect x="354.5" y="79" width="8" height="8"/><rect x="363.5" y="79" width="8" height="8"/><rect x="336.5" y="88" width="8" height="8"/><rect x="336.5" y="97" width="8" height="8"/><rect x="336.5" y="106" width="8" height="8"/><rect x="399.5" y="52" width="8" height="8"/><rect x="408.5" y="52" width="8" height="8"/><rect x="417.5" y="52" width="8" height="8"/><rect x="390.5" y="61" width="8" height="8"/><rect x="426.5" y="61" width="8" height="8"/><rect x="390.5" y="70" width="8" height="8"/><rect x="426.5" y="70" width="8" height="8"/><rect x="390.5" y="79" width="8" height="8"/><rect x="399.5" y="79" width="8" height="8"/><rect x="408.5" y="79" width="8" height="8"/><rect x="417.5" y="79" width="8" height="8"/><rect x="426.5" y="79" width="8" height="8"/><rect x="390.5" y="88" width="8" height="8"/><rect x="426.5" y="88" width="8" height="8"/><rect x="390.5" y="97" width="8" height="8"/><rect x="426.5" y="97" width="8" height="8"/><rect x="390.5" y="106" width="8" height="8"/><rect x="426.5" y="106" width="8" height="8"/><rect x="444.5" y="52" width="8" height="8"/><rect x="453.5" y="52" width="8" height="8"/><rect x="462.5" y="52" width="8" height="8"/><rect x="471.5" y="52" width="8" height="8"/><rect x="444.5" y="61" width="8" height="8"/><rect x="480.5" y="61" width="8" height="8"/><rect x="444.5" y="70" width="8" height="8"/><rect x="480.5" y="70" width="8" height="8"/><rect x="444.5" y="79" width="8" height="8"/><rect x="453.5" y="79" width="8" height="8"/><rect x="462.5" y="79" width="8" height="8"/><rect x="471.5" y="79" width="8" height="8"/><rect x="444.5" y="88" width="8" height="8"/><rect x="480.5" y="88" width="8" height="8"/><rect x="444.5" y="97" width="8" height="8"/><rect x="480.5" y="97" width="8" height="8"/><rect x="444.5" y="106" width="8" height="8"/><rect x="453.5" y="106" width="8" height="8"/><rect x="462.5" y="106" width="8" height="8"/><rect x="471.5" y="106" width="8" height="8"/><rect x="498.5" y="52" width="8" height="8"/><rect x="507.5" y="52" width="8" height="8"/><rect x="516.5" y="52" width="8" height="8"/><rect x="525.5" y="52" width="8" height="8"/><rect x="534.5" y="52" width="8" height="8"/><rect x="516.5" y="61" width="8" height="8"/><rect x="516.5" y="70" width="8" height="8"/><rect x="516.5" y="79" width="8" height="8"/><rect x="516.5" y="88" width="8" height="8"/><rect x="516.5" y="97" width="8" height="8"/><rect x="498.5" y="106" width="8" height="8"/><rect x="507.5" y="106" width="8" height="8"/><rect x="516.5" y="106" width="8" height="8"/><rect x="525.5" y="106" width="8" height="8"/><rect x="534.5" y="106" width="8" height="8"/><rect x="552.5" y="52" width="8" height="8"/><rect x="561.5" y="52" width="8" height="8"/><rect x="570.5" y="52" width="8" height="8"/><rect x="579.5" y="52" width="8" height="8"/><rect x="588.5" y="52" width="8" height="8"/><rect x="570.5" y="61" width="8" height="8"/><rect x="570.5" y="70" width="8" height="8"/><rect x="570.5" y="79" width="8" height="8"/><rect x="570.5" y="88" width="8" height="8"/><rect x="570.5" y="97" width="8" height="8"/><rect x="570.5" y="106" width="8" height="8"/><rect x="615.5" y="52" width="8" height="8"/><rect x="624.5" y="52" width="8" height="8"/><rect x="633.5" y="52" width="8" height="8"/><rect x="642.5" y="52" width="8" height="8"/><rect x="606.5" y="61" width="8" height="8"/><rect x="606.5" y="70" width="8" height="8"/><rect x="615.5" y="79" width="8" height="8"/><rect x="624.5" y="79" width="8" height="8"/><rect x="633.5" y="79" width="8" height="8"/><rect x="642.5" y="88" width="8" height="8"/><rect x="642.5" y="97" width="8" height="8"/><rect x="606.5" y="106" width="8" height="8"/><rect x="615.5" y="106" width="8" height="8"/><rect x="624.5" y="106" width="8" height="8"/><rect x="633.5" y="106" width="8" height="8"/></g><g fill="#3dff8a" filter="url(#glow)"><rect x="228.5" y="52" width="8" height="8"/><rect x="237.5" y="52" width="8" height="8"/><rect x="246.5" y="52" width="8" height="8"/><rect x="255.5" y="52" width="8" height="8"/><rect x="228.5" y="61" width="8" height="8"/><rect x="264.5" y="61" width="8" height="8"/><rect x="228.5" y="70" width="8" height="8"/><rect x="264.5" y="70" width="8" height="8"/><rect x="228.5" y="79" width="8" height="8"/><rect x="237.5" y="79" width="8" height="8"/><rect x="246.5" y="79" width="8" height="8"/><rect x="255.5" y="79" width="8" height="8"/><rect x="228.5" y="88" width="8" height="8"/><rect x="246.5" y="88" width="8" height="8"/><rect x="228.5" y="97" width="8" height="8"/><rect x="255.5" y="97" width="8" height="8"/><rect x="228.5" y="106" width="8" height="8"/><rect x="264.5" y="106" width="8" height="8"/><rect x="291.5" y="52" width="8" height="8"/><rect x="300.5" y="52" width="8" height="8"/><rect x="309.5" y="52" width="8" height="8"/><rect x="282.5" y="61" width="8" height="8"/><rect x="318.5" y="61" width="8" height="8"/><rect x="282.5" y="70" width="8" height="8"/><rect x="318.5" y="70" width="8" height="8"/><rect x="282.5" y="79" width="8" height="8"/><rect x="291.5" y="79" width="8" height="8"/><rect x="300.5" y="79" width="8" height="8"/><rect x="309.5" y="79" width="8" height="8"/><rect x="318.5" y="79" width="8" height="8"/><rect x="282.5" y="88" width="8" height="8"/><rect x="318.5" y="88" width="8" height="8"/><rect x="282.5" y="97" width="8" height="8"/><rect x="318.5" y="97" width="8" height="8"/><rect x="282.5" y="106" width="8" height="8"/><rect x="318.5" y="106" width="8" height="8"/><rect x="336.5" y="52" width="8" height="8"/><rect x="345.5" y="52" width="8" height="8"/><rect x="354.5" y="52" width="8" height="8"/><rect x="363.5" y="52" width="8" height="8"/><rect x="372.5" y="52" width="8" height="8"/><rect x="336.5" y="61" width="8" height="8"/><rect x="336.5" y="70" width="8" height="8"/><rect x="336.5" y="79" width="8" height="8"/><rect x="345.5" y="79" width="8" height="8"/><rect x="354.5" y="79" width="8" height="8"/><rect x="363.5" y="79" width="8" height="8"/><rect x="336.5" y="88" width="8" height="8"/><rect x="336.5" y="97" width="8" height="8"/><rect x="336.5" y="106" width="8" height="8"/><rect x="399.5" y="52" width="8" height="8"/><rect x="408.5" y="52" width="8" height="8"/><rect x="417.5" y="52" width="8" height="8"/><rect x="390.5" y="61" width="8" height="8"/><rect x="426.5" y="61" width="8" height="8"/><rect x="390.5" y="70" width="8" height="8"/><rect x="426.5" y="70" width="8" height="8"/><rect x="390.5" y="79" width="8" height="8"/><rect x="399.5" y="79" width="8" height="8"/><rect x="408.5" y="79" width="8" height="8"/><rect x="417.5" y="79" width="8" height="8"/><rect x="426.5" y="79" width="8" height="8"/><rect x="390.5" y="88" width="8" height="8"/><rect x="426.5" y="88" width="8" height="8"/><rect x="390.5" y="97" width="8" height="8"/><rect x="426.5" y="97" width="8" height="8"/><rect x="390.5" y="106" width="8" height="8"/><rect x="426.5" y="106" width="8" height="8"/><rect x="444.5" y="52" width="8" height="8"/><rect x="453.5" y="52" width="8" height="8"/><rect x="462.5" y="52" width="8" height="8"/><rect x="471.5" y="52" width="8" height="8"/><rect x="444.5" y="61" width="8" height="8"/><rect x="480.5" y="61" width="8" height="8"/><rect x="444.5" y="70" width="8" height="8"/><rect x="480.5" y="70" width="8" height="8"/><rect x="444.5" y="79" width="8" height="8"/><rect x="453.5" y="79" width="8" height="8"/><rect x="462.5" y="79" width="8" height="8"/><rect x="471.5" y="79" width="8" height="8"/><rect x="444.5" y="88" width="8" height="8"/><rect x="480.5" y="88" width="8" height="8"/><rect x="444.5" y="97" width="8" height="8"/><rect x="480.5" y="97" width="8" height="8"/><rect x="444.5" y="106" width="8" height="8"/><rect x="453.5" y="106" width="8" height="8"/><rect x="462.5" y="106" width="8" height="8"/><rect x="471.5" y="106" width="8" height="8"/><rect x="498.5" y="52" width="8" height="8"/><rect x="507.5" y="52" width="8" height="8"/><rect x="516.5" y="52" width="8" height="8"/><rect x="525.5" y="52" width="8" height="8"/><rect x="534.5" y="52" width="8" height="8"/><rect x="516.5" y="61" width="8" height="8"/><rect x="516.5" y="70" width="8" height="8"/><rect x="516.5" y="79" width="8" height="8"/><rect x="516.5" y="88" width="8" height="8"/><rect x="516.5" y="97" width="8" height="8"/><rect x="498.5" y="106" width="8" height="8"/><rect x="507.5" y="106" width="8" height="8"/><rect x="516.5" y="106" width="8" height="8"/><rect x="525.5" y="106" width="8" height="8"/><rect x="534.5" y="106" width="8" height="8"/><rect x="552.5" y="52" width="8" height="8"/><rect x="561.5" y="52" width="8" height="8"/><rect x="570.5" y="52" width="8" height="8"/><rect x="579.5" y="52" width="8" height="8"/><rect x="588.5" y="52" width="8" height="8"/><rect x="570.5" y="61" width="8" height="8"/><rect x="570.5" y="70" width="8" height="8"/><rect x="570.5" y="79" width="8" height="8"/><rect x="570.5" y="88" width="8" height="8"/><rect x="570.5" y="97" width="8" height="8"/><rect x="570.5" y="106" width="8" height="8"/><rect x="615.5" y="52" width="8" height="8"/><rect x="624.5" y="52" width="8" height="8"/><rect x="633.5" y="52" width="8" height="8"/><rect x="642.5" y="52" width="8" height="8"/><rect x="606.5" y="61" width="8" height="8"/><rect x="606.5" y="70" width="8" height="8"/><rect x="615.5" y="79" width="8" height="8"/><rect x="624.5" y="79" width="8" height="8"/><rect x="633.5" y="79" width="8" height="8"/><rect x="642.5" y="88" width="8" height="8"/><rect x="642.5" y="97" width="8" height="8"/><rect x="606.5" y="106" width="8" height="8"/><rect x="615.5" y="106" width="8" height="8"/><rect x="624.5" y="106" width="8" height="8"/><rect x="633.5" y="106" width="8" height="8"/></g>
<text x="440" y="140" fill="#39c6ff" font-weight="400" text-anchor="middle" class="glowtxt">game dev · python · artificial intelligence</text>
<text x="28" y="182" xml:space="preserve"><tspan fill="#3dff8a">rafael@rafabits</tspan><tspan fill="#7cb896">:</tspan><tspan fill="#39c6ff">~</tspan><tspan fill="#7cb896">$ </tspan></text>
<clipPath id="type"><rect x="176.2" y="168" width="0" height="19"><animate attributeName="width" values="0;7.8;15.6;23.4;31.2;39;46.8;54.6;62.4;70.2;78;85.8;93.6;101.4;109.2;117;124.8;132.6;140.4;148.2;156;163.8;171.6;179.4;187.2;195;199" calcMode="discrete" begin="0.4s" dur="1.4s" fill="freeze"/></rect></clipPath><g clip-path="url(#type)"><text x="176.2" y="182" fill="#effff4" font-weight="400">./boot --profile rafabits</text></g>
<g opacity="0"><set attributeName="opacity" to="1" begin="2.00s" fill="freeze"/><text x="28" y="205" xml:space="preserve"><tspan fill="#3dff8a">[ ok ] </tspan><tspan fill="#effff4">godot 4 </tspan><tspan fill="#174a2e">..................... </tspan><tspan fill="#7cb896">gamedev online</tspan></text></g>
<g opacity="0"><set attributeName="opacity" to="1" begin="2.35s" fill="freeze"/><text x="28" y="224" xml:space="preserve"><tspan fill="#3dff8a">[ ok ] </tspan><tspan fill="#effff4">python </tspan><tspan fill="#174a2e">...................... </tspan><tspan fill="#7cb896">automation + data</tspan></text></g>
<g opacity="0"><set attributeName="opacity" to="1" begin="2.70s" fill="freeze"/><text x="28" y="243" xml:space="preserve"><tspan fill="#3dff8a">[ ok ] </tspan><tspan fill="#effff4">ai / ml </tspan><tspan fill="#174a2e">..................... </tspan><tspan fill="#7cb896">agents + vision</tspan></text></g>
<g opacity="0"><set attributeName="opacity" to="1" begin="3.05s" fill="freeze"/><text x="28" y="262" xml:space="preserve"><tspan fill="#39c6ff">[info] </tspan><tspan fill="#c6f6d8">background: finance &amp; data (FP&amp;A, BI, ETL pipelines)</tspan></text></g>
<g opacity="0"><set attributeName="opacity" to="1" begin="3.60s" fill="freeze"/><text x="28" y="291" xml:space="preserve"><tspan fill="#3dff8a">rafael@rafabits</tspan><tspan fill="#7cb896">:</tspan><tspan fill="#39c6ff">~</tspan><tspan fill="#7cb896">$ </tspan></text><rect class="blink" x="176.2" y="278" width="7.8" height="16" fill="#3dff8a"/></g>
<rect width="880" height="330" fill="url(#scan)" pointer-events="none"/><rect width="880" height="330" fill="url(#vig)" pointer-events="none"/><rect x=".5" y=".5" width="879" height="329" rx="8" fill="none" stroke="#174a2e"/>
</g>
</svg>
